<svg xmlns="http://www.w3.org/2000/svg" viewBox="0 0 1024 1024">
  <defs>
    <linearGradient id="polaris" x1="0" y1="0" x2="1024" y2="1024" gradientUnits="userSpaceOnUse">
      <stop offset="0" stop-color="#4AE6B8"/>
      <stop offset="1" stop-color="#59A0F8"/>
    </linearGradient>
  </defs>
  <path d="M 901.0 532.0 L 900.8 532.0 L 900.2 532.0 L 899.2 532.0 L 897.8 532.0 L 896.0 532.1 L 893.8 532.2 L 891.2 532.3 L 888.3 532.5 L 885.0 532.7 L 881.3 533.0 L 877.2 533.4 L 872.8 533.9 L 868.1 534.4 L 863.1 535.1 L 857.7 535.9 L 852.1 536.9 L 846.2 537.9 L 840.0 539.2 L 833.5 540.6 L 826.8 542.1 L 819.9 543.9 L 812.8 545.8 L 805.5 547.9 L 798.0 550.3 L 790.4 552.8 L 782.6 555.6 L 774.8 558.5 L 766.8 561.7 L 758.7 565.2 L 750.5 568.9 L 742.3 572.8 L 734.1 576.9 L 725.9 581.3 L 717.6 585.9 L 709.4 590.8 L 701.2 595.9 L 693.1 601.2 L 685.0 606.8 L 677.1 612.6 L 669.2 618.6 L 661.4 624.8 L 653.8 631.2 L 646.3 637.9 L 638.9 644.7 L 631.7 651.7 L 624.7 658.9 L 617.9 666.3 L 611.2 673.8 L 604.8 681.4 L 598.6 689.2 L 592.6 697.1 L 586.8 705.0 L 581.2 713.1 L 575.9 721.2 L 570.8 729.4 L 565.9 737.6 L 561.3 745.9 L 556.9 754.1 L 552.8 762.3 L 548.9 770.5 L 545.2 778.7 L 541.7 786.8 L 538.5 794.8 L 535.6 802.6 L 532.8 810.4 L 530.3 818.0 L 527.9 825.5 L 525.8 832.8 L 523.9 839.9 L 522.1 846.8 L 520.6 853.5 L 519.2 860.0 L 517.9 866.2 L 516.9 872.1 L 515.9 877.7 L 515.1 883.1 L 514.4 888.1 L 513.9 892.8 L 513.4 897.2 L 513.0 901.3 L 512.7 905.0 L 512.5 908.3 L 512.3 911.2 L 512.2 913.8 L 512.1 916.0 L 512.0 917.8 L 512.0 919.2 L 512.0 920.2 L 512.0 920.8 L 512.0 921.0 L 512.0 920.8 L 512.0 920.2 L 512.0 919.2 L 512.0 917.8 L 511.9 916.0 L 511.8 913.8 L 511.7 911.2 L 511.5 908.3 L 511.3 905.0 L 511.0 901.3 L 510.6 897.2 L 510.1 892.8 L 509.6 888.1 L 508.9 883.1 L 508.1 877.7 L 507.1 872.1 L 506.1 866.2 L 504.8 860.0 L 503.4 853.5 L 501.9 846.8 L 500.1 839.9 L 498.2 832.8 L 496.1 825.5 L 493.7 818.0 L 491.2 810.4 L 488.4 802.6 L 485.5 794.8 L 482.3 786.8 L 478.8 778.7 L 475.1 770.5 L 471.2 762.3 L 467.1 754.1 L 462.7 745.9 L 458.1 737.6 L 453.2 729.4 L 448.1 721.2 L 442.8 713.1 L 437.2 705.0 L 431.4 697.1 L 425.4 689.2 L 419.2 681.4 L 412.8 673.8 L 406.1 666.3 L 399.3 658.9 L 392.3 651.7 L 385.1 644.7 L 377.7 637.9 L 370.2 631.2 L 362.6 624.8 L 354.8 618.6 L 346.9 612.6 L 339.0 606.8 L 330.9 601.2 L 322.8 595.9 L 314.6 590.8 L 306.4 585.9 L 298.1 581.3 L 289.9 576.9 L 281.7 572.8 L 273.5 568.9 L 265.3 565.2 L 257.2 561.7 L 249.2 558.5 L 241.4 555.6 L 233.6 552.8 L 226.0 550.3 L 218.5 547.9 L 211.2 545.8 L 204.1 543.9 L 197.2 542.1 L 190.5 540.6 L 184.0 539.2 L 177.8 537.9 L 171.9 536.9 L 166.3 535.9 L 160.9 535.1 L 155.9 534.4 L 151.2 533.9 L 146.8 533.4 L 142.7 533.0 L 139.0 532.7 L 135.7 532.5 L 132.8 532.3 L 130.2 532.2 L 128.0 532.1 L 126.2 532.0 L 124.8 532.0 L 123.8 532.0 L 123.2 532.0 L 123.0 532.0 L 123.2 532.0 L 123.8 532.0 L 124.8 532.0 L 126.2 532.0 L 128.0 531.9 L 130.2 531.8 L 132.8 531.7 L 135.7 531.5 L 139.0 531.3 L 142.7 531.0 L 146.8 530.6 L 151.2 530.1 L 155.9 529.6 L 160.9 528.9 L 166.3 528.1 L 171.9 527.1 L 177.8 526.1 L 184.0 524.8 L 190.5 523.4 L 197.2 521.9 L 204.1 520.1 L 211.2 518.2 L 218.5 516.1 L 226.0 513.7 L 233.6 511.2 L 241.4 508.4 L 249.2 505.5 L 257.2 502.3 L 265.3 498.8 L 273.5 495.1 L 281.7 491.2 L 289.9 487.1 L 298.1 482.7 L 306.4 478.1 L 314.6 473.2 L 322.8 468.1 L 330.9 462.8 L 339.0 457.2 L 346.9 451.4 L 354.8 445.4 L 362.6 439.2 L 370.2 432.8 L 377.7 426.1 L 385.1 419.3 L 392.3 412.3 L 399.3 405.1 L 406.1 397.7 L 412.8 390.2 L 419.2 382.6 L 425.4 374.8 L 431.4 366.9 L 437.2 359.0 L 442.8 350.9 L 448.1 342.8 L 453.2 334.6 L 458.1 326.4 L 462.7 318.1 L 467.1 309.9 L 471.2 301.7 L 475.1 293.5 L 478.8 285.3 L 482.3 277.2 L 485.5 269.2 L 488.4 261.4 L 491.2 253.6 L 493.7 246.0 L 496.1 238.5 L 498.2 231.2 L 500.1 224.1 L 501.9 217.2 L 503.4 210.5 L 504.8 204.0 L 506.1 197.8 L 507.1 191.9 L 508.1 186.3 L 508.9 180.9 L 509.6 175.9 L 510.1 171.2 L 510.6 166.8 L 511.0 162.7 L 511.3 159.0 L 511.5 155.7 L 511.7 152.8 L 511.8 150.2 L 511.9 148.0 L 512.0 146.2 L 512.0 144.8 L 512.0 143.8 L 512.0 143.2 L 512.0 143.0 L 512.0 143.2 L 512.0 143.8 L 512.0 144.8 L 512.0 146.2 L 512.1 148.0 L 512.2 150.2 L 512.3 152.8 L 512.5 155.7 L 512.7 159.0 L 513.0 162.7 L 513.4 166.8 L 513.9 171.2 L 514.4 175.9 L 515.1 180.9 L 515.9 186.3 L 516.9 191.9 L 517.9 197.8 L 519.2 204.0 L 520.6 210.5 L 522.1 217.2 L 523.9 224.1 L 525.8 231.2 L 527.9 238.5 L 530.3 246.0 L 532.8 253.6 L 535.6 261.4 L 538.5 269.2 L 541.7 277.2 L 545.2 285.3 L 548.9 293.5 L 552.8 301.7 L 556.9 309.9 L 561.3 318.1 L 565.9 326.4 L 570.8 334.6 L 575.9 342.8 L 581.2 350.9 L 586.8 359.0 L 592.6 366.9 L 598.6 374.8 L 604.8 382.6 L 611.2 390.2 L 617.9 397.7 L 624.7 405.1 L 631.7 412.3 L 638.9 419.3 L 646.3 426.1 L 653.8 432.8 L 661.4 439.2 L 669.2 445.4 L 677.1 451.4 L 685.0 457.2 L 693.1 462.8 L 701.2 468.1 L 709.4 473.2 L 717.6 478.1 L 725.9 482.7 L 734.1 487.1 L 742.3 491.2 L 750.5 495.1 L 758.7 498.8 L 766.8 502.3 L 774.8 505.5 L 782.6 508.4 L 790.4 511.2 L 798.0 513.7 L 805.5 516.1 L 812.8 518.2 L 819.9 520.1 L 826.8 521.9 L 833.5 523.4 L 840.0 524.8 L 846.2 526.1 L 852.1 527.1 L 857.7 528.1 L 863.1 528.9 L 868.1 529.6 L 872.8 530.1 L 877.2 530.6 L 881.3 531.0 L 885.0 531.3 L 888.3 531.5 L 891.2 531.7 L 893.8 531.8 L 896.0 531.9 L 897.8 532.0 L 899.2 532.0 L 900.2 532.0 L 900.8 532.0 Z" fill="url(#polaris)"/>
  <path d="M 837.0 251.0 L 837.0 251.0 L 836.8 251.0 L 836.7 251.0 L 836.4 251.0 L 836.0 251.0 L 835.6 251.0 L 835.1 251.1 L 834.6 251.1 L 833.9 251.1 L 833.2 251.2 L 832.5 251.3 L 831.6 251.4 L 830.7 251.5 L 829.8 251.6 L 828.8 251.7 L 827.7 251.9 L 826.6 252.1 L 825.4 252.4 L 824.2 252.6 L 822.9 252.9 L 821.6 253.3 L 820.2 253.6 L 818.8 254.0 L 817.4 254.5 L 816.0 255.0 L 814.5 255.5 L 813.0 256.0 L 811.5 256.7 L 809.9 257.3 L 808.4 258.0 L 806.8 258.8 L 805.3 259.5 L 803.7 260.4 L 802.1 261.3 L 800.6 262.2 L 799.0 263.1 L 797.5 264.2 L 795.9 265.2 L 794.4 266.3 L 792.9 267.5 L 791.4 268.7 L 790.0 269.9 L 788.5 271.1 L 787.1 272.4 L 785.8 273.8 L 784.4 275.1 L 783.1 276.5 L 781.9 278.0 L 780.7 279.4 L 779.5 280.9 L 778.3 282.4 L 777.2 283.9 L 776.2 285.5 L 775.1 287.0 L 774.2 288.6 L 773.3 290.1 L 772.4 291.7 L 771.5 293.3 L 770.8 294.8 L 770.0 296.4 L 769.3 297.9 L 768.7 299.5 L 768.0 301.0 L 767.5 302.5 L 767.0 304.0 L 766.5 305.4 L 766.0 306.8 L 765.6 308.2 L 765.3 309.6 L 764.9 310.9 L 764.6 312.2 L 764.4 313.4 L 764.1 314.6 L 763.9 315.7 L 763.7 316.8 L 763.6 317.8 L 763.5 318.7 L 763.4 319.6 L 763.3 320.5 L 763.2 321.2 L 763.1 321.9 L 763.1 322.6 L 763.1 323.1 L 763.0 323.6 L 763.0 324.0 L 763.0 324.4 L 763.0 324.7 L 763.0 324.8 L 763.0 325.0 L 763.0 325.0 L 763.0 325.0 L 763.0 324.8 L 763.0 324.7 L 763.0 324.4 L 763.0 324.0 L 763.0 323.6 L 762.9 323.1 L 762.9 322.6 L 762.9 321.9 L 762.8 321.2 L 762.7 320.5 L 762.6 319.6 L 762.5 318.7 L 762.4 317.8 L 762.3 316.8 L 762.1 315.7 L 761.9 314.6 L 761.6 313.4 L 761.4 312.2 L 761.1 310.9 L 760.7 309.6 L 760.4 308.2 L 760.0 306.8 L 759.5 305.4 L 759.0 304.0 L 758.5 302.5 L 758.0 301.0 L 757.3 299.5 L 756.7 297.9 L 756.0 296.4 L 755.2 294.8 L 754.5 293.3 L 753.6 291.7 L 752.7 290.1 L 751.8 288.6 L 750.9 287.0 L 749.8 285.5 L 748.8 283.9 L 747.7 282.4 L 746.5 280.9 L 745.3 279.4 L 744.1 278.0 L 742.9 276.5 L 741.6 275.1 L 740.2 273.8 L 738.9 272.4 L 737.5 271.1 L 736.0 269.9 L 734.6 268.7 L 733.1 267.5 L 731.6 266.3 L 730.1 265.2 L 728.5 264.2 L 727.0 263.1 L 725.4 262.2 L 723.9 261.3 L 722.3 260.4 L 720.7 259.5 L 719.2 258.8 L 717.6 258.0 L 716.1 257.3 L 714.5 256.7 L 713.0 256.0 L 711.5 255.5 L 710.0 255.0 L 708.6 254.5 L 707.2 254.0 L 705.8 253.6 L 704.4 253.3 L 703.1 252.9 L 701.8 252.6 L 700.6 252.4 L 699.4 252.1 L 698.3 251.9 L 697.2 251.7 L 696.2 251.6 L 695.3 251.5 L 694.4 251.4 L 693.5 251.3 L 692.8 251.2 L 692.1 251.1 L 691.4 251.1 L 690.9 251.1 L 690.4 251.0 L 690.0 251.0 L 689.6 251.0 L 689.3 251.0 L 689.2 251.0 L 689.0 251.0 L 689.0 251.0 L 689.0 251.0 L 689.2 251.0 L 689.3 251.0 L 689.6 251.0 L 690.0 251.0 L 690.4 251.0 L 690.9 250.9 L 691.4 250.9 L 692.1 250.9 L 692.8 250.8 L 693.5 250.7 L 694.4 250.6 L 695.3 250.5 L 696.2 250.4 L 697.2 250.3 L 698.3 250.1 L 699.4 249.9 L 700.6 249.6 L 701.8 249.4 L 703.1 249.1 L 704.4 248.7 L 705.8 248.4 L 707.2 248.0 L 708.6 247.5 L 710.0 247.0 L 711.5 246.5 L 713.0 246.0 L 714.5 245.3 L 716.1 244.7 L 717.6 244.0 L 719.2 243.2 L 720.7 242.5 L 722.3 241.6 L 723.9 240.7 L 725.4 239.8 L 727.0 238.9 L 728.5 237.8 L 730.1 236.8 L 731.6 235.7 L 733.1 234.5 L 734.6 233.3 L 736.0 232.1 L 737.5 230.9 L 738.9 229.6 L 740.2 228.2 L 741.6 226.9 L 742.9 225.5 L 744.1 224.0 L 745.3 222.6 L 746.5 221.1 L 747.7 219.6 L 748.8 218.1 L 749.8 216.5 L 750.9 215.0 L 751.8 213.4 L 752.7 211.9 L 753.6 210.3 L 754.5 208.7 L 755.2 207.2 L 756.0 205.6 L 756.7 204.1 L 757.3 202.5 L 758.0 201.0 L 758.5 199.5 L 759.0 198.0 L 759.5 196.6 L 760.0 195.2 L 760.4 193.8 L 760.7 192.4 L 761.1 191.1 L 761.4 189.8 L 761.6 188.6 L 761.9 187.4 L 762.1 186.3 L 762.3 185.2 L 762.4 184.2 L 762.5 183.3 L 762.6 182.4 L 762.7 181.5 L 762.8 180.8 L 762.9 180.1 L 762.9 179.4 L 762.9 178.9 L 763.0 178.4 L 763.0 178.0 L 763.0 177.6 L 763.0 177.3 L 763.0 177.2 L 763.0 177.0 L 763.0 177.0 L 763.0 177.0 L 763.0 177.2 L 763.0 177.3 L 763.0 177.6 L 763.0 178.0 L 763.0 178.4 L 763.1 178.9 L 763.1 179.4 L 763.1 180.1 L 763.2 180.8 L 763.3 181.5 L 763.4 182.4 L 763.5 183.3 L 763.6 184.2 L 763.7 185.2 L 763.9 186.3 L 764.1 187.4 L 764.4 188.6 L 764.6 189.8 L 764.9 191.1 L 765.3 192.4 L 765.6 193.8 L 766.0 195.2 L 766.5 196.6 L 767.0 198.0 L 767.5 199.5 L 768.0 201.0 L 768.7 202.5 L 769.3 204.1 L 770.0 205.6 L 770.8 207.2 L 771.5 208.7 L 772.4 210.3 L 773.3 211.9 L 774.2 213.4 L 775.1 215.0 L 776.2 216.5 L 777.2 218.1 L 778.3 219.6 L 779.5 221.1 L 780.7 222.6 L 781.9 224.0 L 783.1 225.5 L 784.4 226.9 L 785.8 228.2 L 787.1 229.6 L 788.5 230.9 L 790.0 232.1 L 791.4 233.3 L 792.9 234.5 L 794.4 235.7 L 795.9 236.8 L 797.5 237.8 L 799.0 238.9 L 800.6 239.8 L 802.1 240.7 L 803.7 241.6 L 805.3 242.5 L 806.8 243.2 L 808.4 244.0 L 809.9 244.7 L 811.5 245.3 L 813.0 246.0 L 814.5 246.5 L 816.0 247.0 L 817.4 247.5 L 818.8 248.0 L 820.2 248.4 L 821.6 248.7 L 822.9 249.1 L 824.2 249.4 L 825.4 249.6 L 826.6 249.9 L 827.7 250.1 L 828.8 250.3 L 829.8 250.4 L 830.7 250.5 L 831.6 250.6 L 832.5 250.7 L 833.2 250.8 L 833.9 250.9 L 834.6 250.9 L 835.1 250.9 L 835.6 251.0 L 836.0 251.0 L 836.4 251.0 L 836.7 251.0 L 836.8 251.0 L 837.0 251.0 Z" fill="url(#polaris)"/>
</svg>
